<svg width="33" height="48" viewBox="0 0 33 48" fill="none" xmlns="http://www.w3.org/2000/svg">
<path fill-rule="evenodd" clip-rule="evenodd" d="M3.27148 7.7093L12.8441 0.291588L12.8405 0.298699C13.1037 0.0924534 13.4024 0 13.694 0C14.4229 0 15.1057 0.572507 15.1057 1.4046V14.6434C15.1057 15.8346 13.7118 16.4854 12.7979 15.7173L3.27148 7.7093ZM17.6055 14.647V1.40816C17.6055 0.572508 18.2918 0 19.0172 0C19.3088 0 19.6075 0.0888967 19.8707 0.295142L29.4468 7.7093L19.9133 15.7209C18.9995 16.4889 17.6055 15.8418 17.6055 14.647ZM4.83966 25.5351C3.11858 24.0878 2.12646 21.9578 2.12646 19.7105V19.7069V17.9858L13.4877 27.4838C14.5154 28.3408 15.1092 29.6138 15.1092 30.9508V34.169L4.83966 25.5351ZM4.77921 17.3778C3.09724 15.9732 2.12646 13.8929 2.12646 11.7025V9.83203L13.4984 19.3869C14.519 20.2474 15.1092 21.5133 15.1092 22.8468V26.0116L4.77921 17.3778ZM19.2235 27.4624C18.1994 28.3194 17.6091 29.5888 17.6091 30.9223V34.1653L27.8787 25.5279C29.5962 24.0842 30.5884 21.9506 30.5884 19.7068V17.9253L19.2235 27.4624ZM19.2164 19.4188C18.1959 20.2758 17.6091 21.5417 17.6091 22.8752V26.0115L27.9427 17.3386C29.6176 15.9304 30.5884 13.8573 30.5884 11.6668V9.84619L19.2164 19.4188ZM21.3606 39.2862L23.1742 40.3316V40.3352C23.6435 40.6054 23.9351 41.1068 23.9351 41.6509V43.7453C23.9351 44.2858 23.6435 44.7908 23.1742 45.061L21.3606 46.1065C20.8877 46.3767 20.3081 46.3767 19.8387 46.1065L18.0251 45.061C17.5557 44.7908 17.2642 44.2894 17.2642 43.7453V36.957L18.9248 37.8709V39.8125L19.8387 39.2862C20.3116 39.0159 20.8912 39.0159 21.3606 39.2862ZM20.5996 44.6343L22.2745 43.6671V41.7327L20.5996 40.7655L18.9248 41.7327V43.6671L20.5996 44.6343ZM13.5445 43.6599L11.8697 44.6271L10.1948 43.6599V39.8052L8.53418 38.9233V43.7417C8.53418 44.2857 8.82577 44.7871 9.29515 45.0574L11.1087 46.1028C11.5781 46.3731 12.1577 46.3731 12.6306 46.1028L14.4442 45.0574C14.9136 44.7871 15.2051 44.2822 15.2051 43.7417V38.9233L13.5445 39.8052V43.6599ZM3.33548 40.762L5.01033 41.7293L6.67096 40.7692L4.09646 39.2828C3.62707 39.0125 3.04745 39.0125 2.57451 39.2828L0.760973 40.3282C0.291588 40.5985 0 41.1034 0 41.6439V43.7384C0 44.2824 0.291588 44.7838 0.760973 45.0541L2.57451 46.0995C3.0439 46.3698 3.62352 46.3698 4.09646 46.0995L6.67096 44.6131L5.01033 43.653L3.33548 44.6203L1.66063 43.653V41.7186L3.33548 40.7514V40.762ZM32.3591 40.5804L30.1224 39.2967C29.6601 39.0372 29.0983 39.0372 28.636 39.2967L26.8047 40.3564C26.3353 40.6267 26.0437 41.1281 26.0437 41.6721V43.731C26.0437 44.2751 26.3353 44.8085 26.8047 45.0787L30.5704 47.2514L30.5526 45.3347L27.7008 43.6848V41.7503L29.3721 40.7867L31.022 41.7397L29.3614 42.6962V44.6093L32.2915 42.9167C32.5404 42.7745 32.6933 42.5113 32.6969 42.2268L32.7111 41.1956C32.7111 40.9431 32.576 40.7085 32.3555 40.5804H32.3591Z" fill="#02293D"/>
</svg>
